<svg width="26" height="12" viewBox="0 0 26 12" fill="none" xmlns="http://www.w3.org/2000/svg">
<path d="M0 11.2214V0H5.09772C6.31605 0 7.3901 0.235115 8.31987 0.705346C9.24964 1.16489 9.97636 1.81146 10.5 2.64505C11.0237 3.47864 11.2855 4.46719 11.2855 5.6107C11.2855 6.74353 11.0237 7.73208 10.5 8.57636C9.97636 9.40995 9.24964 10.0619 8.31987 10.5321C7.3901 10.9916 6.31605 11.2214 5.09772 11.2214H0ZM2.59695 9.08934H4.96948C5.71757 9.08934 6.36414 8.9504 6.90918 8.67254C7.46491 8.38399 7.89239 7.97788 8.19162 7.45422C8.50155 6.93055 8.65651 6.31605 8.65651 5.6107C8.65651 4.89467 8.50155 4.28016 8.19162 3.76719C7.89239 3.24352 7.46491 2.84276 6.90918 2.56489C6.36414 2.27634 5.71757 2.13207 4.96948 2.13207H2.59695V9.08934Z" fill="#6B4EFF"/>
<path d="M12.2576 11.2214V0H17.1148C18.1194 0 18.9851 0.165649 19.7118 0.496948C20.4385 0.817559 20.9996 1.28245 21.395 1.89161C21.7904 2.50077 21.9881 3.22749 21.9881 4.07177C21.9881 4.90536 21.7904 5.62673 21.395 6.23589C20.9996 6.83437 20.4385 7.29391 19.7118 7.61452C18.9851 7.93513 18.1194 8.09544 17.1148 8.09544H13.7003L14.8545 6.95727V11.2214H12.2576ZM19.3912 11.2214L16.5858 7.14964H19.3591L22.1965 11.2214H19.3912ZM14.8545 7.24582L13.7003 6.0275H16.9706C17.7721 6.0275 18.3706 5.8565 18.766 5.51452C19.1614 5.16185 19.3591 4.68093 19.3591 4.07177C19.3591 3.45192 19.1614 2.971 18.766 2.62901C18.3706 2.28703 17.7721 2.11604 16.9706 2.11604H13.7003L14.8545 0.881682V7.24582Z" fill="#6B4EFF"/>
<path d="M23.8286 11.3497C23.4012 11.3497 23.0325 11.2054 22.7225 10.9168C22.4233 10.6176 22.2737 10.2382 22.2737 9.77866C22.2737 9.31912 22.4233 8.95041 22.7225 8.67255C23.0325 8.384 23.4012 8.23972 23.8286 8.23972C24.2668 8.23972 24.6355 8.384 24.9348 8.67255C25.234 8.95041 25.3836 9.31912 25.3836 9.77866C25.3836 10.2382 25.234 10.6176 24.9348 10.9168C24.6355 11.2054 24.2668 11.3497 23.8286 11.3497Z" fill="#6B4EFF"/>
</svg>
